<svg xmlns="http://www.w3.org/2000/svg" width="13.424" height="12.074" viewBox="0 0 13.424 12.074">
  <g id="Group_6598" data-name="Group 6598" transform="translate(-481.736 -1406.471)">
    <path id="Path_3094" data-name="Path 3094" d="M.806,3.672,13.7,1.811a.6.6,0,0,1,.69.731,1.174,1.174,0,0,1-.922.963L.573,5.367a.6.6,0,0,1-.69-.731A1.174,1.174,0,0,1,.806,3.672Z" transform="translate(480.673 1414.347) rotate(-40)" fill="#d9be02"/>
    <path id="Path_3093" data-name="Path 3093" d="M.806.116,13.7,1.978a1.174,1.174,0,0,1,.922.963.6.6,0,0,1-.69.731L1.039,1.811A1.174,1.174,0,0,1,.116.847.6.6,0,0,1,.806.116Z" transform="translate(484.02 1406.318) rotate(40)" fill="#d9be02"/>
  </g>
</svg>
