<svg xmlns="http://www.w3.org/2000/svg" xmlns:xlink="http://www.w3.org/1999/xlink" viewBox="0 0 291.1 72.9"><defs><style>.cls-1{fill:url(#linear-gradient);}.cls-2{fill:url(#linear-gradient-2);}</style><linearGradient id="linear-gradient" x1="88.03" y1="68.92" x2="135.52" y2="68.92" gradientUnits="userSpaceOnUse"><stop offset="0" stop-color="#e4cd64"/><stop offset="0.04" stop-color="#d4b655"/><stop offset="0.11" stop-color="#b58c39"/><stop offset="0.18" stop-color="#9f6e25"/><stop offset="0.24" stop-color="#925c18"/><stop offset="0.28" stop-color="#8d5514"/><stop offset="0.33" stop-color="#97631e"/><stop offset="0.44" stop-color="#b38939"/><stop offset="0.58" stop-color="#dfc664"/><stop offset="0.65" stop-color="#f8e87c"/><stop offset="0.68" stop-color="#f2df76"/><stop offset="0.72" stop-color="#e0c765"/><stop offset="0.78" stop-color="#c3a049"/><stop offset="0.84" stop-color="#9c6a23"/><stop offset="0.86" stop-color="#8d5514"/><stop offset="1" stop-color="#c19733"/></linearGradient><linearGradient id="linear-gradient-2" x1="0" y1="35.86" x2="72.58" y2="35.86" xlink:href="#linear-gradient"/></defs><g id="Layer_2" data-name="Layer 2"><g id="Layer_1-2" data-name="Layer 1"><path d="M105.4,51H87.6v-.5h.6a2.7,2.7,0,0,0,2.7-2.7v-24a2.6,2.6,0,0,0-2.7-2.4h-.6v-.5h12.6a20.1,20.1,0,0,0,5.1-.7v5.4h-.5v-.8a2.4,2.4,0,0,0-2.4-2.5H93.7V35.5h7.2a2.1,2.1,0,0,0,2.1-2.1v-.6h.4v6.7H103v-.6a2.1,2.1,0,0,0-2-2.1H93.7V49.6h6.1c4.6,0,6.3-2.3,7.6-5.6h.5Z"/><path d="M141.3,20.9v.5h-.7a2.2,2.2,0,0,0-2.3,2v17c0,6.7-4.6,11.2-11.5,11.2s-11.9-4.5-11.9-11.2V23.5a2.2,2.2,0,0,0-2.3-2.1h-.7v-.5h8.7v.5h-.7a2.1,2.1,0,0,0-2.2,2V39.8c0,6.2,3.6,10.4,9.1,10.4s9.5-3.9,9.5-9.9V23.4a2.1,2.1,0,0,0-2.2-2h-.7v-.5Z"/><path d="M157,20.9c5.2,0,8.4,3.1,8.4,8.1s-3.2,8.2-7.3,8.2a10.8,10.8,0,0,1,3.1,3s3.7,5.3,5.3,7.1,3.3,3.2,5.9,3.2V51H170a9.4,9.4,0,0,1-7.5-3.8c-.5-.6-5.3-7.6-5.6-8s-2.4-2.9-4-2.9v-.4h2.3c2.2-.1,5.5-.6,6.7-4.5a9.3,9.3,0,0,0,.3-2.6c-.1-3.8-2.2-6.3-5.3-6.5s-4.8,0-5.4,0V47.8a2.8,2.8,0,0,0,2.8,2.7h.5V51h-9.4v-.5h.5a2.7,2.7,0,0,0,2.7-2.6V24.1a2.7,2.7,0,0,0-2.7-2.7h-.5v-.5Z"/><path d="M200.5,35.9c0-8.5-4.8-14.3-12.1-14.3s-12.1,5.8-12.1,14.3,4.8,14.4,12.1,14.4,12.1-5.8,12.1-14.4m3.3,0c0,9.4-6.3,15.7-15.4,15.7S173,45.3,173,35.9s6.3-15.6,15.4-15.6,15.4,6.3,15.4,15.6"/><path d="M227.9,44l-2.5,7H207.6v-.5h.6a2.7,2.7,0,0,0,2.7-2.7V24.1a2.7,2.7,0,0,0-2.7-2.7h-.6v-.5H217v.5h-.6a2.7,2.7,0,0,0-2.7,2.7V49.6h6.1c4.6,0,6.3-2.3,7.7-5.6Z"/><path d="M260,20.9v.5h-.7a2.2,2.2,0,0,0-2.3,2v17c0,6.7-4.6,11.2-11.5,11.2s-11.9-4.5-11.9-11.2V23.5a2.2,2.2,0,0,0-2.3-2.1h-.7v-.5h8.7v.5h-.7a2.1,2.1,0,0,0-2.2,2V39.8c0,6.2,3.6,10.4,9.1,10.4s9.5-3.9,9.5-9.9V23.4a2.1,2.1,0,0,0-2.2-2h-.7v-.5Z"/><path d="M291,50.5V51H280.5v-.5h.6a1.8,1.8,0,0,0,1.5-2.6L276,37.5l-6.6,10.4a1.8,1.8,0,0,0,1.5,2.6h.5v.4h-9.7v-.4h.6a5.7,5.7,0,0,0,4.4-2.5l8.2-12.2-7.5-11.9a5.7,5.7,0,0,0-4.4-2.5h-.6v-.5h10.4v.5h-.5a1.8,1.8,0,0,0-1.5,2.6l5.9,9.3,5.8-9.3a1.8,1.8,0,0,0-1.4-2.6h-.6v-.5h9.7v.5h-.6a5.5,5.5,0,0,0-4.3,2.5L277.8,35l8.3,13a5.3,5.3,0,0,0,4.3,2.5Z"/><rect class="cls-1" x="88" y="67.8" width="47.5" height="2.21"/><path class="cls-2" d="M56.8,6A36,36,0,0,0,39.5.1a41.3,41.3,0,0,0-7.9.2A36.3,36.3,0,0,0,.3,31.1,35.7,35.7,0,0,0,21.1,68.4,34,34,0,0,0,30,71.1a36.2,36.2,0,0,0,12.7.1c14.1-2.3,24.1-12.5,27.4-21.9a.3.3,0,0,0-.3-.5c-.6-.1-1,.2-1.4.9C63.1,60.8,54.5,67.3,42.7,69.6l-1.4.2a27.3,27.3,0,0,1-5.7.4c-.5,0-.6-.7,0-.8a41.8,41.8,0,0,0,7.1-.9c9.8-2.4,17.5-8.6,23-19.1a.3.3,0,0,0-.3-.5c-.8-.3-1.3.1-1.7.9-4.7,8.9-12.1,14.8-21,17.1l-4,.8h-.6l-1.9.2H33.7c-.2,0-.3-.2-.3-.4a.3.3,0,0,1,.3-.3h.7l4-.5h.1a33.1,33.1,0,0,0,4.2-1.2c7.6-2.5,13.7-7.8,18.2-16a.4.4,0,0,0-.2-.6c-.9-.3-1.3.1-1.7.9C54.8,56.9,49.3,61.6,42.7,64a32.6,32.6,0,0,1-9.5,1.7H31.9a.3.3,0,0,1,0-.6h1.7A30.3,30.3,0,0,0,42.7,62c5-2.5,9.3-6.5,13.1-12l.3-.4a.7.7,0,0,0-.2-.9h-.5c-.2,0-.4,0-.5.2a1.9,1.9,0,0,0-.4.6.1.1,0,0,0-.1.1.3.3,0,0,0-.1.2h-.1A29.8,29.8,0,0,1,42.7,60.6a28.9,28.9,0,0,1-11.1,2.9H30.1c-.2,0-.4-.1-.4-.3a.4.4,0,0,1,.4-.4H32a26.7,26.7,0,0,0,10.7-4,31.3,31.3,0,0,0,8.2-8.4l.4-.5c.2-.2.1-.7-.3-.9h-.4c-.2,0-.4,0-.5.2a7,7,0,0,0-.6.9h-.1a27.1,27.1,0,0,1-6.9,7,25.6,25.6,0,0,1-12.4,4.6H28.4c-.2-.1-.4-.2-.4-.4s.2-.5.4-.5h2.1A25.5,25.5,0,0,0,39,56.7a28.4,28.4,0,0,0,7.1-6.8l.4-.5c.2-.2.1-.7-.3-.9h-.4c-.2,0-.4,0-.5.2l-.6.8h0l-.5.6A22.7,22.7,0,0,1,36,56.7a24.8,24.8,0,0,1-14.9,2.2,23.7,23.7,0,0,1-18-14.2C-.1,37.1.8,29.5,4.1,22.2,9.5,10.3,18.8,3.5,31.6,1.6l1.3-.2a35.7,35.7,0,0,1,8,.1c.5.1.5.9-.1.8H37a24.8,24.8,0,0,0-5.4.6C18.2,5.6,7,16.9,4.9,30.6h0c0,.4.2.7.5.7h.1a.6.6,0,0,0,.6-.5,1.3,1.3,0,0,1,.1-.5h0A32.4,32.4,0,0,1,31.6,4.2l1.8-.4,2.2-.3H41l1.7.2A.3.3,0,0,1,43,4c0,.2-.1.4-.3.4H36.1a36.3,36.3,0,0,0-4.5,1,29.6,29.6,0,0,0-9.4,4.7A30.5,30.5,0,0,0,9.3,31.1h0v.2a.8.8,0,0,0,.5.5h.1a.6.6,0,0,0,.6-.5,5.4,5.4,0,0,0,.1-.8h0A29.6,29.6,0,0,1,17.8,16,30.9,30.9,0,0,1,31.6,7a31.4,31.4,0,0,1,6.1-1.2h3.8l2.8.2h.6a.5.5,0,0,1,.2.4.3.3,0,0,1-.3.3h-5L38.4,7h-.2a35.7,35.7,0,0,0-6.6,1.8,30.8,30.8,0,0,0-9.9,6.8,27.9,27.9,0,0,0-7.9,15.5h0v.2h0v.2a1,1,0,0,0,.5.4h.1a.6.6,0,0,0,.6-.5l.2-.9h0c.5-1.5.7-3.1,1.3-4.5A28.1,28.1,0,0,1,31.6,10.2L33,9.7l1.5-.6h.4L36,8.7h1l1.6-.3L39.9,8a30,30,0,0,1,6.7.1.3.3,0,0,1,.3.3h0a.3.3,0,0,1-.3.3H41.5a25.8,25.8,0,0,0-8.8,2.8l-1.1.6A27,27,0,0,0,18.5,30c0,.2-.1.5-.1.8h-.1V31c0,.3.2.7.5.7h.1a.6.6,0,0,0,.6-.5h.1c.2-.7.3-1.5.5-2.2A25.5,25.5,0,0,1,31.6,13.9a27.1,27.1,0,0,1,9.5-3.4,13.6,13.6,0,0,1,2.9-.3h2.6l1.5.2a.3.3,0,0,1,.3.3c0,.2-.2.2-.3.2h-5l-1.4.3h-.1A25.4,25.4,0,0,0,23,30.2h0v.4a.5.5,0,0,0,.5.7h.1c.3,0,.5-.3.6-.5v-.2h0a.4.4,0,0,0,.1-.3c.1-.1.1-.3.2-.4h0a23.9,23.9,0,0,1,7.4-11.8A23.2,23.2,0,0,1,46,12.3a25.6,25.6,0,0,1,10.8,1.8A23.5,23.5,0,0,1,70.1,27.9c.2.6.4,1.2.6,2s-.1.5-.4.5H45.7a1.2,1.2,0,0,0-.5.7,1.8,1.8,0,0,0,.5.7,3.3,3.3,0,0,0,1,0H72.2a.4.4,0,0,0,.4-.4C71.8,22.4,66.3,12.2,56.8,6"/><path d="M145.2,65h.5v6.1h3.8v.5h-4.3Z"/><path d="M150.8,65h.5v6.6h-.5Z"/><path d="M158.3,68.3h.4v2.5a3.6,3.6,0,0,1-2.3.8,3.4,3.4,0,1,1,0-6.7,3.4,3.4,0,0,1,2.4.9l-.3.3a3.1,3.1,0,0,0-2.1-.7,2.9,2.9,0,0,0-3,2.9,2.9,2.9,0,0,0,3,2.9,3.3,3.3,0,0,0,1.9-.6Z"/><path d="M166.2,65v6.6h-.4V68.4h-4.5v3.2h-.4V65h.4v3h4.5V65Z"/><path d="M169.8,65.4h-2.4V65h5.3v.4h-2.4v6.2h-.5Z"/><path d="M173.9,65h.4v6.6h-.4Z"/><path d="M182,65v6.6h-.4l-4.5-5.8v5.8h-.5V65h.4l4.5,5.7V65Z"/><path d="M189,68.3h.5v2.5a3.6,3.6,0,0,1-2.3.8,3.4,3.4,0,1,1,0-6.7,3,3,0,0,1,2.3.9l-.3.3a2.7,2.7,0,0,0-2-.7,2.9,2.9,0,0,0-3,2.9,2.9,2.9,0,0,0,3,2.9,2.8,2.8,0,0,0,1.8-.6Z"/><path d="M191.9,71.2a.8.8,0,0,1-.1.4l-.3,1.3h-.4l.3-1.3c-.2-.1-.3-.2-.3-.4a.4.4,0,0,1,.4-.4A.4.4,0,0,1,191.9,71.2Z"/><path d="M196,65h.5v6.1h3.8v.5H196Z"/><path d="M201.6,65h.4v6.6h-.4Z"/><path d="M209.5,65l-2.9,6.6h-.5L203.2,65h.5l2.7,6,2.6-6Z"/><path d="M210.6,65h.5v6.6h-.5Z"/><path d="M218.8,65v6.6h-.4l-4.5-5.8v5.8h-.5V65h.4l4.5,5.7V65Z"/><path d="M225.8,68.3h.5v2.5a3.8,3.8,0,0,1-2.4.8,3.4,3.4,0,1,1,0-6.7,3.2,3.2,0,0,1,2.4.9l-.3.3a3.1,3.1,0,0,0-2.1-.7,2.9,2.9,0,0,0-3,2.9,2.9,2.9,0,0,0,3,2.9,3.1,3.1,0,0,0,1.9-.6Z"/><path d="M235.5,71.7l-1-1a2.8,2.8,0,0,1-2.2.9c-1.3,0-2.2-.6-2.2-1.6s.5-1.4,1.8-2.1h-.1a2.4,2.4,0,0,1-.8-1.6,1.4,1.4,0,0,1,1.6-1.4,1.3,1.3,0,0,1,1.4,1.3c0,.6-.4,1.1-1.5,1.7l2,2.1a5,5,0,0,0,.4-1.3h.4a5.3,5.3,0,0,1-.5,1.5l.9,1.1Zm-1.3-1.3-2.1-2.2c-1.1.7-1.5,1.1-1.5,1.7s.7,1.3,1.7,1.3A2.4,2.4,0,0,0,234.2,70.4Zm-2-2.7c1.1-.6,1.4-1,1.4-1.5a.9.9,0,0,0-1-.9c-.7,0-1.2.4-1.2,1S231.6,67,232.2,67.7Z"/><path d="M238.8,68.3a3.3,3.3,0,0,1,3.4-3.4,3.4,3.4,0,0,1,2.4.9l-.3.3a3.1,3.1,0,0,0-2.1-.7,2.8,2.8,0,0,0-2.9,2.9,2.8,2.8,0,0,0,2.9,2.9,3.2,3.2,0,0,0,2.1-.8l.3.3a3.4,3.4,0,0,1-2.4.9A3.2,3.2,0,0,1,238.8,68.3Z"/><path d="M245.4,68.3a3.4,3.4,0,0,1,3.4-3.4,3.4,3.4,0,1,1,0,6.7A3.3,3.3,0,0,1,245.4,68.3Zm6.4,0a3,3,0,0,0-5.9,0,3,3,0,0,0,5.9,0Z"/><path d="M259.3,65v6.6h-.4l-4.5-5.8v5.8H254V65h.4l4.5,5.7V65Z"/><path d="M262.9,65.4h-2.4V65h5.3v.4h-2.4v6.2h-.5Z"/><path d="M271.5,71.6,270,69.4h-2.6v2.2H267V65h2.3c1.7,0,2.7.8,2.7,2.2a2.1,2.1,0,0,1-1.6,2.1l1.7,2.3ZM269.3,69c1.4,0,2.2-.7,2.2-1.8s-.8-1.8-2.2-1.8h-1.9V69Z"/><path d="M277.8,69.7H274l-.8,1.9h-.6l3.1-6.6h.5l3,6.6h-.5Zm-.1-.4-1.8-3.8-1.7,3.8Z"/><path d="M279.7,68.3a3.3,3.3,0,0,1,3.4-3.4,3.4,3.4,0,0,1,2.4.9l-.3.3a3.1,3.1,0,0,0-2.1-.7,2.8,2.8,0,0,0-2.9,2.9,2.8,2.8,0,0,0,2.9,2.9,3.2,3.2,0,0,0,2.1-.8l.3.3a3.4,3.4,0,0,1-2.4.9A3.2,3.2,0,0,1,279.7,68.3Z"/><path d="M288.3,65.4h-2.4V65h5.2v.4h-2.4v6.2h-.4Z"/></g></g></svg>