<svg xmlns="http://www.w3.org/2000/svg" width="22.888" height="22.927" viewBox="0 0 22.888 22.927">
  <g id="Group_351" data-name="Group 351" transform="translate(-1.113 -0.001)">
    <path id="Path_2973" data-name="Path 2973" d="M20.012,22.928c-.1,0-.192,0-.285-.012a20.9,20.9,0,0,1-9.081-3.227,20.613,20.613,0,0,1-6.3-6.3,20.886,20.886,0,0,1-3.221-9.1A3.007,3.007,0,0,1,3.841,1.012C3.932,1,4.021,1,4.11,1H7.14A3,3,0,0,1,10.1,3.58a11.925,11.925,0,0,0,.647,2.6,3.007,3.007,0,0,1-.676,3.163l-.721.721a15.011,15.011,0,0,0,4.586,4.587l.717-.718a3.006,3.006,0,0,1,3.168-.679,11.868,11.868,0,0,0,2.589.645A3,3,0,0,1,23,16.931V19.92a3,3,0,0,1-2.988,3.008ZM7.13,3H4.11a1.019,1.019,0,0,0-.994,1.09,18.862,18.862,0,0,0,2.913,8.216,18.63,18.63,0,0,0,5.7,5.7,18.874,18.874,0,0,0,8.2,2.92h.006a1.036,1.036,0,0,0,.776-.294.99.99,0,0,0,.29-.707V16.9a1,1,0,0,0-.859-1.015,13.808,13.808,0,0,1-3.021-.754,1,1,0,0,0-1.057.225L14.8,16.617a1,1,0,0,1-1.2.162A16.993,16.993,0,0,1,7.221,10.4a1,1,0,0,1,.162-1.2l1.27-1.27a1,1,0,0,0,.221-1.051,13.854,13.854,0,0,1-.755-3.031A1,1,0,0,0,7.13,3ZM19,9.95a1,1,0,0,1-.98-.809,3.983,3.983,0,0,0-3.161-3.159,1,1,0,1,1,.383-1.963,5.971,5.971,0,0,1,4.74,4.74,1,1,0,0,1-.79,1.172A.962.962,0,0,1,19,9.95Zm4-.01a1,1,0,0,1-.993-.888,7.958,7.958,0,0,0-7.067-7.058A1,1,0,1,1,15.16.007a9.946,9.946,0,0,1,8.834,8.821,1,1,0,0,1-.883,1.106A1.051,1.051,0,0,1,23,9.94Z" fill="#d9be02"/>
  </g>
</svg>
