<svg xmlns="http://www.w3.org/2000/svg" width="18.567" height="27.845" viewBox="0 0 18.567 27.845">
  <g id="Group_350" data-name="Group 350" transform="translate(-24 -11.008)">
    <path id="Path_2971" data-name="Path 2971" d="M33.284,11.008A9.066,9.066,0,0,0,24,20.292a9.68,9.68,0,0,0,1.462,5.021l7.509,13.357a.357.357,0,0,0,.625,0l7.509-13.357a9.68,9.68,0,0,0,1.462-5.021A9.066,9.066,0,0,0,33.284,11.008Zm0,.714a8.3,8.3,0,0,1,8.569,8.569,8.885,8.885,0,0,1-1.373,4.675l-7.2,12.8-7.2-12.8a8.889,8.889,0,0,1-1.373-4.675A8.3,8.3,0,0,1,33.284,11.722Zm0,3.928a4.642,4.642,0,1,0,4.642,4.642A4.647,4.647,0,0,0,33.284,15.65Zm0,.714a3.928,3.928,0,1,1-3.928,3.928A3.922,3.922,0,0,1,33.284,16.364Z" fill="#d9be02"/>
  </g>
</svg>
